<svg width="48" height="48" viewBox="0 0 48 48" fill="none" xmlns="http://www.w3.org/2000/svg">
<path fill-rule="evenodd" clip-rule="evenodd" d="M23.535 15.5189C23.6097 15.3549 23.6387 15.1738 23.6189 14.9946C23.5991 14.8155 23.5312 14.6451 23.4225 14.5013C23.3138 14.3576 23.1683 14.2459 23.0013 14.178C22.8344 14.1102 22.6522 14.0887 22.474 14.1159C17.675 14.8519 14 18.9959 14 23.9999C14 29.5229 18.477 33.9999 24 33.9999C29.523 33.9999 34 29.5229 34 23.9999L33.996 23.7199C33.991 23.5397 33.9373 23.3641 33.8407 23.2118C33.7441 23.0595 33.608 22.9362 33.447 22.8549C33.286 22.7736 33.106 22.7374 32.9261 22.7501C32.7462 22.7628 32.573 22.8239 32.425 22.9269C31.3461 23.6783 30.0503 24.0545 28.7367 23.9977C27.4232 23.9409 26.1647 23.4542 25.1547 22.6125C24.1447 21.7707 23.4392 20.6206 23.1466 19.3388C22.8539 18.057 22.9904 16.7146 23.535 15.5179" fill="#181818"/>
</svg>
