<svg width="24" height="24" viewBox="0 0 24 24" fill="none" xmlns="http://www.w3.org/2000/svg">
<path fill-rule="evenodd" clip-rule="evenodd" d="M11.535 3.51895C11.6097 3.35493 11.6387 3.17378 11.6189 2.99465C11.5991 2.81551 11.5312 2.64506 11.4225 2.50131C11.3138 2.35757 11.1683 2.24587 11.0013 2.17803C10.8344 2.1102 10.6522 2.08875 10.474 2.11595C5.675 2.85195 2 6.99595 2 11.9999C2 17.5229 6.477 21.9999 12 21.9999C17.523 21.9999 22 17.5229 22 11.9999L21.996 11.7199C21.991 11.5397 21.9373 11.3641 21.8407 11.2118C21.7441 11.0595 21.608 10.9362 21.447 10.8549C21.286 10.7736 21.106 10.7374 20.9261 10.7501C20.7462 10.7628 20.573 10.8239 20.425 10.9269C19.3461 11.6783 18.0503 12.0545 16.7367 11.9977C15.4232 11.9409 14.1647 11.4542 13.1547 10.6125C12.1447 9.77073 11.4392 8.62056 11.1466 7.33879C10.8539 6.05702 10.9904 4.7146 11.535 3.51795" fill="#181818"/>
</svg>
